<svg xmlns="http://www.w3.org/2000/svg" xmlns:xlink="http://www.w3.org/1999/xlink" width="120" zoomAndPan="magnify" viewBox="0 0 90 89.999999" height="120" preserveAspectRatio="xMidYMid meet" version="1.0"><defs><g/></defs><g fill="#ffffff" fill-opacity="1"><g transform="translate(3.245738, 53.838834)"><g><path d="M 24.125 -9.703125 L 24.125 -1.671875 C 21.34375 -0.0546875 18.453125 0.75 15.453125 0.75 C 11.648438 0.75 8.609375 -0.347656 6.328125 -2.546875 C 4.054688 -4.742188 2.921875 -7.671875 2.921875 -11.328125 L 2.921875 -14.75 C 2.921875 -16.394531 3.257812 -18.019531 3.9375 -19.625 C 4.625 -21.238281 5.539062 -22.601562 6.6875 -23.71875 C 8.851562 -25.726562 11.46875 -26.734375 14.53125 -26.734375 C 17.59375 -26.734375 20.160156 -25.894531 22.234375 -24.21875 L 22.234375 -24.875 C 22.234375 -25.707031 22.554688 -26.125 23.203125 -26.125 C 23.816406 -26.125 24.125 -25.707031 24.125 -24.875 L 24.125 -20.65625 C 24.125 -19.8125 23.816406 -19.390625 23.203125 -19.390625 C 22.617188 -19.390625 22.3125 -19.78125 22.28125 -20.5625 C 22.1875 -21.738281 21.394531 -22.742188 19.90625 -23.578125 C 18.425781 -24.410156 16.664062 -24.828125 14.625 -24.828125 C 12.019531 -24.828125 9.867188 -23.992188 8.171875 -22.328125 C 7.148438 -21.367188 6.335938 -20.195312 5.734375 -18.8125 C 5.128906 -17.4375 4.828125 -16.066406 4.828125 -14.703125 L 4.828125 -11.328125 C 4.828125 -8.171875 5.785156 -5.6875 7.703125 -3.875 C 9.617188 -2.0625 12.25 -1.15625 15.59375 -1.15625 C 17.757812 -1.15625 19.972656 -1.679688 22.234375 -2.734375 L 22.234375 -9.703125 L 15.78125 -9.703125 C 14.945312 -9.703125 14.53125 -10.023438 14.53125 -10.671875 C 14.53125 -11.296875 14.945312 -11.609375 15.78125 -11.609375 L 24.78125 -11.609375 C 25.644531 -11.609375 26.078125 -11.296875 26.078125 -10.671875 C 26.078125 -10.023438 25.644531 -9.703125 24.78125 -9.703125 Z M 24.125 -9.703125 "/></g></g></g><g fill="#ffffff" fill-opacity="1"><g transform="translate(31.082456, 53.838834)"><g/></g></g><g fill="#ffffff" fill-opacity="1"><g transform="translate(58.919174, 53.838834)"><g><path d="M 4.828125 -1.90625 L 4.828125 -24.21875 L 3.25 -24.21875 C 2.414062 -24.21875 2 -24.546875 2 -25.203125 C 2 -25.816406 2.414062 -26.125 3.25 -26.125 L 13.453125 -26.125 C 16.453125 -26.125 18.976562 -24.988281 21.03125 -22.71875 C 23.09375 -20.445312 24.125 -17.671875 24.125 -14.390625 L 24.125 -11.78125 C 24.125 -8.476562 23.09375 -5.6875 21.03125 -3.40625 C 18.976562 -1.132812 16.453125 0 13.453125 0 L 3.25 0 C 2.414062 0 2 -0.320312 2 -0.96875 C 2 -1.59375 2.414062 -1.90625 3.25 -1.90625 Z M 6.734375 -1.90625 L 13.6875 -1.90625 C 15.914062 -1.90625 17.894531 -2.863281 19.625 -4.78125 C 21.363281 -6.695312 22.234375 -8.894531 22.234375 -11.375 L 22.234375 -14.75 C 22.234375 -17.445312 21.226562 -19.832031 19.21875 -21.90625 C 17.664062 -23.445312 15.710938 -24.21875 13.359375 -24.21875 L 6.734375 -24.21875 Z M 6.734375 -1.90625 "/></g></g></g><g fill="#ffffff" fill-opacity="1"><g transform="translate(11.931109, 64.944529)"><g><path d="M 4.0625 -4.296875 L 4.0625 -4.546875 C 4.0625 -4.703125 4.117188 -4.78125 4.234375 -4.78125 C 4.347656 -4.78125 4.40625 -4.703125 4.40625 -4.546875 L 4.40625 -3.59375 C 4.40625 -3.445312 4.34375 -3.375 4.21875 -3.375 C 4.125 -3.375 4.070312 -3.441406 4.0625 -3.578125 C 4.039062 -3.835938 3.882812 -4.0625 3.59375 -4.25 C 3.300781 -4.445312 2.96875 -4.546875 2.59375 -4.546875 C 2.125 -4.546875 1.71875 -4.363281 1.375 -4 C 1.039062 -3.644531 0.875 -3.210938 0.875 -2.703125 L 0.875 -2.109375 C 0.875 -1.597656 1.054688 -1.15625 1.421875 -0.78125 C 1.796875 -0.40625 2.234375 -0.21875 2.734375 -0.21875 C 3.023438 -0.21875 3.285156 -0.273438 3.515625 -0.390625 C 3.753906 -0.503906 3.984375 -0.695312 4.203125 -0.96875 C 4.253906 -1.03125 4.304688 -1.0625 4.359375 -1.0625 C 4.472656 -1.0625 4.53125 -1.007812 4.53125 -0.90625 C 4.53125 -0.8125 4.421875 -0.664062 4.203125 -0.46875 C 3.773438 -0.0625 3.285156 0.140625 2.734375 0.140625 C 2.148438 0.140625 1.632812 -0.0820312 1.1875 -0.53125 C 0.75 -0.976562 0.53125 -1.484375 0.53125 -2.046875 L 0.53125 -2.75 C 0.53125 -3.007812 0.582031 -3.273438 0.6875 -3.546875 C 0.800781 -3.828125 0.953125 -4.066406 1.140625 -4.265625 C 1.523438 -4.679688 2.007812 -4.890625 2.59375 -4.890625 C 3.15625 -4.890625 3.644531 -4.691406 4.0625 -4.296875 Z M 4.0625 -4.296875 "/></g></g></g><g fill="#ffffff" fill-opacity="1"><g transform="translate(19.562518, 64.944529)"><g><path d="M 2.5 -0.984375 L 2.59375 -0.984375 C 2.75 -0.984375 2.882812 -0.929688 3 -0.828125 C 3.113281 -0.722656 3.171875 -0.585938 3.171875 -0.421875 C 3.171875 -0.265625 3.113281 -0.132812 3 -0.03125 C 2.882812 0.0703125 2.75 0.125 2.59375 0.125 L 2.5 0.125 C 2.332031 0.125 2.191406 0.0703125 2.078125 -0.03125 C 1.972656 -0.132812 1.921875 -0.265625 1.921875 -0.421875 C 1.921875 -0.585938 1.972656 -0.722656 2.078125 -0.828125 C 2.191406 -0.929688 2.332031 -0.984375 2.5 -0.984375 Z M 2.5 -0.984375 "/></g></g></g><g fill="#ffffff" fill-opacity="1"><g transform="translate(27.193926, 64.944529)"><g><path d="M 2.546875 -4.890625 C 3.140625 -4.890625 3.640625 -4.644531 4.046875 -4.15625 C 4.453125 -3.664062 4.65625 -3.0625 4.65625 -2.34375 C 4.65625 -1.65625 4.445312 -1.066406 4.03125 -0.578125 C 3.625 -0.0976562 3.128906 0.140625 2.546875 0.140625 C 1.953125 0.140625 1.453125 -0.101562 1.046875 -0.59375 C 0.640625 -1.082031 0.4375 -1.675781 0.4375 -2.375 C 0.4375 -3.070312 0.640625 -3.664062 1.046875 -4.15625 C 1.453125 -4.644531 1.953125 -4.890625 2.546875 -4.890625 Z M 2.546875 -4.546875 C 2.054688 -4.546875 1.640625 -4.332031 1.296875 -3.90625 C 0.953125 -3.476562 0.78125 -2.96875 0.78125 -2.375 C 0.78125 -1.78125 0.953125 -1.269531 1.296875 -0.84375 C 1.640625 -0.425781 2.054688 -0.21875 2.546875 -0.21875 C 3.023438 -0.21875 3.4375 -0.425781 3.78125 -0.84375 C 4.132812 -1.257812 4.3125 -1.757812 4.3125 -2.34375 C 4.3125 -2.957031 4.140625 -3.476562 3.796875 -3.90625 C 3.453125 -4.332031 3.035156 -4.546875 2.546875 -4.546875 Z M 2.546875 -4.546875 "/></g></g></g><g fill="#ffffff" fill-opacity="1"><g transform="translate(34.825335, 64.944529)"><g><path d="M 2.5 -0.984375 L 2.59375 -0.984375 C 2.75 -0.984375 2.882812 -0.929688 3 -0.828125 C 3.113281 -0.722656 3.171875 -0.585938 3.171875 -0.421875 C 3.171875 -0.265625 3.113281 -0.132812 3 -0.03125 C 2.882812 0.0703125 2.75 0.125 2.59375 0.125 L 2.5 0.125 C 2.332031 0.125 2.191406 0.0703125 2.078125 -0.03125 C 1.972656 -0.132812 1.921875 -0.265625 1.921875 -0.421875 C 1.921875 -0.585938 1.972656 -0.722656 2.078125 -0.828125 C 2.191406 -0.929688 2.332031 -0.984375 2.5 -0.984375 Z M 2.5 -0.984375 "/></g></g></g><g fill="#ffffff" fill-opacity="1"><g transform="translate(42.456744, 64.944529)"><g><path d="M 0.875 -0.34375 L 0.875 -4.421875 L 0.59375 -4.421875 C 0.4375 -4.421875 0.359375 -4.484375 0.359375 -4.609375 C 0.359375 -4.722656 0.4375 -4.78125 0.59375 -4.78125 L 2.453125 -4.78125 C 3.003906 -4.78125 3.46875 -4.570312 3.84375 -4.15625 C 4.21875 -3.738281 4.40625 -3.226562 4.40625 -2.625 L 4.40625 -2.15625 C 4.40625 -1.550781 4.21875 -1.039062 3.84375 -0.625 C 3.46875 -0.207031 3.003906 0 2.453125 0 L 0.59375 0 C 0.4375 0 0.359375 -0.0546875 0.359375 -0.171875 C 0.359375 -0.285156 0.4375 -0.34375 0.59375 -0.34375 Z M 1.234375 -0.34375 L 2.5 -0.34375 C 2.90625 -0.34375 3.265625 -0.519531 3.578125 -0.875 C 3.898438 -1.226562 4.0625 -1.628906 4.0625 -2.078125 L 4.0625 -2.703125 C 4.0625 -3.191406 3.878906 -3.625 3.515625 -4 C 3.234375 -4.28125 2.875 -4.421875 2.4375 -4.421875 L 1.234375 -4.421875 Z M 1.234375 -0.34375 "/></g></g></g><g fill="#ffffff" fill-opacity="1"><g transform="translate(50.088153, 64.944529)"><g><path d="M 2.5 -0.984375 L 2.59375 -0.984375 C 2.75 -0.984375 2.882812 -0.929688 3 -0.828125 C 3.113281 -0.722656 3.171875 -0.585938 3.171875 -0.421875 C 3.171875 -0.265625 3.113281 -0.132812 3 -0.03125 C 2.882812 0.0703125 2.75 0.125 2.59375 0.125 L 2.5 0.125 C 2.332031 0.125 2.191406 0.0703125 2.078125 -0.03125 C 1.972656 -0.132812 1.921875 -0.265625 1.921875 -0.421875 C 1.921875 -0.585938 1.972656 -0.722656 2.078125 -0.828125 C 2.191406 -0.929688 2.332031 -0.984375 2.5 -0.984375 Z M 2.5 -0.984375 "/></g></g></g><g fill="#ffffff" fill-opacity="1"><g transform="translate(57.719562, 64.944529)"><g><path d="M 1.40625 -2.3125 L 1.40625 -0.34375 L 4.0625 -0.34375 L 4.0625 -1.359375 C 4.0625 -1.515625 4.117188 -1.59375 4.234375 -1.59375 C 4.347656 -1.59375 4.40625 -1.515625 4.40625 -1.359375 L 4.40625 0 L 0.59375 0 C 0.4375 0 0.359375 -0.0546875 0.359375 -0.171875 C 0.359375 -0.285156 0.4375 -0.34375 0.59375 -0.34375 L 1.046875 -0.34375 L 1.046875 -4.421875 L 0.59375 -4.421875 C 0.4375 -4.421875 0.359375 -4.484375 0.359375 -4.609375 C 0.359375 -4.722656 0.4375 -4.78125 0.59375 -4.78125 L 4.234375 -4.78125 L 4.234375 -3.59375 C 4.234375 -3.445312 4.175781 -3.375 4.0625 -3.375 C 3.945312 -3.375 3.890625 -3.445312 3.890625 -3.59375 L 3.890625 -4.421875 L 1.40625 -4.421875 L 1.40625 -2.65625 L 2.625 -2.65625 L 2.625 -3.03125 C 2.625 -3.1875 2.6875 -3.265625 2.8125 -3.265625 C 2.925781 -3.265625 2.984375 -3.1875 2.984375 -3.03125 L 2.984375 -1.921875 C 2.984375 -1.773438 2.925781 -1.703125 2.8125 -1.703125 C 2.6875 -1.703125 2.625 -1.773438 2.625 -1.921875 L 2.625 -2.3125 Z M 1.40625 -2.3125 "/></g></g></g><g fill="#ffffff" fill-opacity="1"><g transform="translate(65.350974, 64.944529)"><g><path d="M 2.5 -0.984375 L 2.59375 -0.984375 C 2.75 -0.984375 2.882812 -0.929688 3 -0.828125 C 3.113281 -0.722656 3.171875 -0.585938 3.171875 -0.421875 C 3.171875 -0.265625 3.113281 -0.132812 3 -0.03125 C 2.882812 0.0703125 2.75 0.125 2.59375 0.125 L 2.5 0.125 C 2.332031 0.125 2.191406 0.0703125 2.078125 -0.03125 C 1.972656 -0.132812 1.921875 -0.265625 1.921875 -0.421875 C 1.921875 -0.585938 1.972656 -0.722656 2.078125 -0.828125 C 2.191406 -0.929688 2.332031 -0.984375 2.5 -0.984375 Z M 2.5 -0.984375 "/></g></g></g><g fill="#ffffff" fill-opacity="1"><g transform="translate(72.98238, 64.944529)"><g><path d="M 3.78125 -4.390625 L 3.78125 -4.546875 C 3.78125 -4.703125 3.835938 -4.78125 3.953125 -4.78125 C 4.066406 -4.78125 4.125 -4.703125 4.125 -4.546875 L 4.125 -3.671875 C 4.125 -3.515625 4.066406 -3.4375 3.953125 -3.4375 C 3.835938 -3.4375 3.78125 -3.503906 3.78125 -3.640625 C 3.757812 -3.898438 3.628906 -4.113281 3.390625 -4.28125 C 3.160156 -4.457031 2.882812 -4.546875 2.5625 -4.546875 C 2.207031 -4.546875 1.914062 -4.453125 1.6875 -4.265625 C 1.457031 -4.078125 1.34375 -3.84375 1.34375 -3.5625 C 1.34375 -3.28125 1.457031 -3.066406 1.6875 -2.921875 C 1.875 -2.796875 2.191406 -2.695312 2.640625 -2.625 C 3.191406 -2.53125 3.570312 -2.414062 3.78125 -2.28125 C 4.132812 -2.0625 4.3125 -1.726562 4.3125 -1.28125 C 4.3125 -0.863281 4.144531 -0.519531 3.8125 -0.25 C 3.488281 0.0078125 3.070312 0.140625 2.5625 0.140625 C 1.957031 0.140625 1.476562 -0.0625 1.125 -0.46875 L 1.125 -0.234375 C 1.125 -0.078125 1.066406 0 0.953125 0 C 0.835938 0 0.78125 -0.078125 0.78125 -0.234375 L 0.78125 -1.171875 C 0.78125 -1.328125 0.835938 -1.40625 0.953125 -1.40625 C 1.066406 -1.40625 1.125 -1.335938 1.125 -1.203125 C 1.132812 -0.921875 1.28125 -0.6875 1.5625 -0.5 C 1.84375 -0.3125 2.171875 -0.21875 2.546875 -0.21875 C 2.941406 -0.21875 3.269531 -0.316406 3.53125 -0.515625 C 3.800781 -0.722656 3.9375 -0.984375 3.9375 -1.296875 C 3.9375 -1.617188 3.8125 -1.859375 3.5625 -2.015625 C 3.394531 -2.117188 3.066406 -2.210938 2.578125 -2.296875 C 2.023438 -2.390625 1.640625 -2.519531 1.421875 -2.6875 C 1.117188 -2.894531 0.96875 -3.191406 0.96875 -3.578125 C 0.96875 -3.941406 1.113281 -4.25 1.40625 -4.5 C 1.707031 -4.757812 2.082031 -4.890625 2.53125 -4.890625 C 3.019531 -4.890625 3.4375 -4.722656 3.78125 -4.390625 Z M 3.78125 -4.390625 "/></g></g></g><g fill="#f3f6fa" fill-opacity="1"><g transform="translate(31.075641, 52.38989)"><g><path d="M 11.234375 0 L 11.234375 -6.78125 L 16.5625 -6.78125 L 16.5625 0 Z M 11.234375 -17.75 L 11.234375 -24.515625 L 16.5625 -24.515625 L 16.5625 -17.75 Z M 11.234375 -17.75 "/></g></g></g></svg>